{"title":"Killer Joe[2011]BRRip XviD ^ HRSAGAR^","uid":7773112,"size":735477836,"categoryP":"video","categoryS":"hd___movies","magnet":"?xt=urn:btih:694bb6747994c8cb7d667ce633308a766d8ad379&amp;dn=Killer+Joe%5B2011%5DBRRip+XviD+%5E+HRSAGAR%5E+&amp;tr=udp%3A%2F%2Ftracker.openbittorrent.com%3A80&amp;tr=udp%3A%2F%2Fopen.demonii.com%3A1337&amp;tr=udp%3A%2F%2Ftracker.coppersurfer.tk%3A6969&amp;tr=udp%3A%2F%2Fexodus.desync.com%3A6969","seeders":0,"leechers":1,"uploader":null,"files":4,"time":1351586618,"description":"Format                      : AVI\nFormat/Info                 : Audio Video Interleave\nFile size                   : 700 MiB\nDuration                    : 1h 42mn\nOverall bit rate            : 957 Kbps\nWriting library             : VirtualDub build 32842/release\nCopyright                   : HRsagar\n\nVideo\nFormat                           : MPEG-4 Visual\nFormat profile                            : Advanced Simple@L5\nFormat settings, BVOP            : 4\nFormat settings, QPel            : No\nFormat settings, GMC             : No warppoints\nFormat settings, Matrix          : Default (H.263)\nMuxing mode                      : Packed bitstream\nCodec ID                         : XVID\nCodec ID/Hint                    : XviD\nDuration                         : 1h 42mn\nBit rate                         : 820 Kbps\nWidth                            : 640 pixels\nHeight                           : 352 pixels\nDisplay aspect ratio             : 16:9\nFrame rate                       : 23.976 fps\nColor space                      : YUV\nChroma subsampling               : 4:2:0\nBit depth                        : 8 bits\nScan type                        : Progressive\nCompression mode                 : Lossy\nBits/(Pixel*Frame)               : 0.152\nStream size                      : 600 MiB (86%)\nWriting library                  : XviD 64\n\nAudio\nFormat                           : MPEG Audio\nFormat version                   : Version 1\nFormat profile                   : Layer 3\nMode                             : Joint stereo\nMode extension                   : MS Stereo\nCodec ID                         : 55\nCodec ID/Hint                    : MP3\nDuration                         : 1h 42mn\nBit rate mode                    : Constant\nBit rate                         : 128 Kbps\nChannel(s)                       : 2 channels\nSampling rate                    : 48.0 KHz\nCompression mode                 : Lossy\nStream size                      : 93.7 MiB (13%)\nAlignment                        : Split accross interleaves\nInterleave, duration             : 42 ms (1.00 video frame)\nInterleave, preload duration     : 500 ms\nWriting library                  : LAME3.98r\nEncoding settings                : -m j -V 4 -q 3 -lowpass 17 -b 128\n\n &lt;a href=&quot;\nhttp://bayimg.com/KaFDmaaEg&quot; rel=&quot;nofollow&quot; target=&quot;_NEW&quot;&gt;\nhttp://bayimg.com/KaFDmaaEg&lt;/a&gt; (screemshot )\n","torrent":{"xt":"urn:btih:694bb6747994c8cb7d667ce633308a766d8ad379","amp;dn":"Killer+Joe%5B2011%5DBRRip+XviD+%5E+HRSAGAR%5E+","amp;tr":["udp%3A%2F%2Ftracker.openbittorrent.com%3A80","udp%3A%2F%2Fopen.demonii.com%3A1337","udp%3A%2F%2Ftracker.coppersurfer.tk%3A6969","udp%3A%2F%2Fexodus.desync.com%3A6969"],"infoHash":"694bb6747994c8cb7d667ce633308a766d8ad379","infoHashBuffer":{"type":"Buffer","data":[105,75,182,116,121,148,200,203,125,102,124,230,51,48,138,118,109,138,211,121]},"announce":[],"urlList":[]}}